<svg width="262" height="285" viewBox="0 0 262 285" fill="none" xmlns="http://www.w3.org/2000/svg">
<path d="M98.5 24H1V284H261V24H163.5" stroke="#5B4C38" stroke-width="1.2" stroke-linecap="round"/>
<path d="M112.264 34.1839V38.4943C112.264 38.954 112.456 39.3755 112.839 39.7586C113.222 40.1418 113.644 40.3333 114.103 40.3333H147.897C148.356 40.3333 148.778 40.1418 149.161 39.7586C149.544 39.3755 149.736 38.954 149.736 38.4943V34.1839H112.264ZM114.103 13.2069H123.184C122.992 12.8238 122.81 12.431 122.638 12.0287C122.466 11.6264 122.379 11.2146 122.379 10.7931C122.379 9.72031 122.743 8.81992 123.471 8.09195C124.199 7.36398 125.1 7 126.172 7C126.824 7 127.446 7.17241 128.04 7.51724C128.634 7.86207 129.103 8.30268 129.448 8.83908L130.885 10.908L132.322 8.83908C132.705 8.30268 133.174 7.86207 133.73 7.51724C134.285 7.17241 134.908 7 135.598 7C136.67 7 137.571 7.36398 138.299 8.09195C139.027 8.81992 139.391 9.72031 139.391 10.7931C139.391 11.1762 139.314 11.5785 139.161 12C139.008 12.4215 138.816 12.8238 138.586 13.2069H147.897C148.739 13.2069 149.467 13.5134 150.08 14.1264C150.693 14.7395 151 15.4674 151 16.3103V38.4943C151 39.3372 150.693 40.0651 150.08 40.6782C149.467 41.2912 148.739 41.5977 147.897 41.5977H114.103C113.261 41.5977 112.533 41.2912 111.92 40.6782C111.307 40.0651 111 39.3372 111 38.4943V16.3103C111 15.4674 111.307 14.7395 111.92 14.1264C112.533 13.5134 113.261 13.2069 114.103 13.2069V13.2069ZM112.264 30.046H149.736V16.3103C149.736 15.8506 149.544 15.4291 149.161 15.046C148.778 14.6628 148.356 14.4713 147.897 14.4713H133.241L137.954 21.0805L136.977 21.8276L130.885 13.4368L124.793 21.8276L123.816 21.0805L128.586 14.4713H114.103C113.644 14.4713 113.222 14.6628 112.839 15.046C112.456 15.4291 112.264 15.8506 112.264 16.3103V30.046ZM126.172 13.3218C126.862 13.3218 127.456 13.0728 127.954 12.5747C128.452 12.0766 128.701 11.4828 128.701 10.7931C128.701 10.1034 128.452 9.50958 127.954 9.01149C127.456 8.51341 126.862 8.26437 126.172 8.26437C125.483 8.26437 124.889 8.51341 124.391 9.01149C123.893 9.50958 123.644 10.1034 123.644 10.7931C123.644 11.4828 123.893 12.0766 124.391 12.5747C124.889 13.0728 125.483 13.3218 126.172 13.3218ZM135.598 13.3218C136.287 13.3218 136.881 13.0728 137.379 12.5747C137.877 12.0766 138.126 11.4828 138.126 10.7931C138.126 10.1034 137.877 9.50958 137.379 9.01149C136.881 8.51341 136.287 8.26437 135.598 8.26437C134.908 8.26437 134.314 8.51341 133.816 9.01149C133.318 9.50958 133.069 10.1034 133.069 10.7931C133.069 11.4828 133.318 12.0766 133.816 12.5747C134.314 13.0728 134.908 13.3218 135.598 13.3218V13.3218Z" fill="#5B4C38"/>
</svg>
