<svg width="264" height="286" viewBox="0 0 264 286" fill="none" xmlns="http://www.w3.org/2000/svg">
<path d="M99.5 24H2V284H262V24H164.5" stroke="#5B4C38" stroke-width="3" stroke-linecap="round"/>
<path d="M113.264 34.1839V38.4943C113.264 38.954 113.456 39.3755 113.839 39.7586C114.222 40.1418 114.644 40.3333 115.103 40.3333H148.897C149.356 40.3333 149.778 40.1418 150.161 39.7586C150.544 39.3755 150.736 38.954 150.736 38.4943V34.1839H113.264ZM115.103 13.2069H124.184C123.992 12.8238 123.81 12.431 123.638 12.0287C123.466 11.6264 123.379 11.2146 123.379 10.7931C123.379 9.72031 123.743 8.81992 124.471 8.09195C125.199 7.36398 126.1 7 127.172 7C127.824 7 128.446 7.17241 129.04 7.51724C129.634 7.86207 130.103 8.30268 130.448 8.83908L131.885 10.908L133.322 8.83908C133.705 8.30268 134.174 7.86207 134.73 7.51724C135.285 7.17241 135.908 7 136.598 7C137.67 7 138.571 7.36398 139.299 8.09195C140.027 8.81992 140.391 9.72031 140.391 10.7931C140.391 11.1762 140.314 11.5785 140.161 12C140.008 12.4215 139.816 12.8238 139.586 13.2069H148.897C149.739 13.2069 150.467 13.5134 151.08 14.1264C151.693 14.7395 152 15.4674 152 16.3103V38.4943C152 39.3372 151.693 40.0651 151.08 40.6782C150.467 41.2912 149.739 41.5977 148.897 41.5977H115.103C114.261 41.5977 113.533 41.2912 112.92 40.6782C112.307 40.0651 112 39.3372 112 38.4943V16.3103C112 15.4674 112.307 14.7395 112.92 14.1264C113.533 13.5134 114.261 13.2069 115.103 13.2069V13.2069ZM113.264 30.046H150.736V16.3103C150.736 15.8506 150.544 15.4291 150.161 15.046C149.778 14.6628 149.356 14.4713 148.897 14.4713H134.241L138.954 21.0805L137.977 21.8276L131.885 13.4368L125.793 21.8276L124.816 21.0805L129.586 14.4713H115.103C114.644 14.4713 114.222 14.6628 113.839 15.046C113.456 15.4291 113.264 15.8506 113.264 16.3103V30.046ZM127.172 13.3218C127.862 13.3218 128.456 13.0728 128.954 12.5747C129.452 12.0766 129.701 11.4828 129.701 10.7931C129.701 10.1034 129.452 9.50958 128.954 9.01149C128.456 8.51341 127.862 8.26437 127.172 8.26437C126.483 8.26437 125.889 8.51341 125.391 9.01149C124.893 9.50958 124.644 10.1034 124.644 10.7931C124.644 11.4828 124.893 12.0766 125.391 12.5747C125.889 13.0728 126.483 13.3218 127.172 13.3218ZM136.598 13.3218C137.287 13.3218 137.881 13.0728 138.379 12.5747C138.877 12.0766 139.126 11.4828 139.126 10.7931C139.126 10.1034 138.877 9.50958 138.379 9.01149C137.881 8.51341 137.287 8.26437 136.598 8.26437C135.908 8.26437 135.314 8.51341 134.816 9.01149C134.318 9.50958 134.069 10.1034 134.069 10.7931C134.069 11.4828 134.318 12.0766 134.816 12.5747C135.314 13.0728 135.908 13.3218 136.598 13.3218V13.3218Z" fill="#5B4C38"/>
</svg>
