<svg width="262" height="285" viewBox="0 0 262 285" fill="none" xmlns="http://www.w3.org/2000/svg">
<path d="M98.5 24H1V284H261V24H163.5" stroke="#5B4C38" stroke-width="1.2" stroke-linecap="round"/>
<path d="M131 30C131.933 30 132.744 29.6778 133.433 29.0333C134.122 28.3889 134.467 27.6 134.467 26.6667C134.467 25.7333 134.122 24.9222 133.433 24.2333C132.744 23.5444 131.933 23.2 131 23.2C130.067 23.2 129.278 23.5444 128.633 24.2333C127.989 24.9222 127.667 25.7333 127.667 26.6667C127.667 27.6 127.989 28.3889 128.633 29.0333C129.278 29.6778 130.067 30 131 30ZM131 55.2C136.689 50.3111 141.144 45.2889 144.367 40.1333C147.589 34.9778 149.2 30.6667 149.2 27.2C149.2 21.7333 147.456 17.2444 143.967 13.7333C140.478 10.2222 136.156 8.46667 131 8.46667C125.844 8.46667 121.544 10.2222 118.1 13.7333C114.656 17.2444 112.933 21.7333 112.933 27.2C112.933 30.6667 114.533 34.9778 117.733 40.1333C120.933 45.2889 125.356 50.3111 131 55.2ZM131 57.2667C124.422 51.3556 119.522 45.8556 116.3 40.7667C113.078 35.6778 111.467 31.1556 111.467 27.2C111.467 21.0667 113.433 16.1667 117.367 12.5C121.3 8.83333 125.844 7 131 7C136.156 7 140.722 8.83333 144.7 12.5C148.678 16.1667 150.667 21.0667 150.667 27.2C150.667 31.1556 149.044 35.6778 145.8 40.7667C142.556 45.8556 137.622 51.3556 131 57.2667V57.2667Z" fill="#5B4C38"/>
</svg>
