<svg width="262" height="285" viewBox="0 0 262 285" fill="none" xmlns="http://www.w3.org/2000/svg">
<path d="M98.5 24H1V284H261V24H163.5" stroke="#5B4C38" stroke-width="1.2" stroke-linecap="round"/>
<path d="M103.832 47.975C103.432 47.975 103.17 47.7875 103.045 47.4125C102.92 47.0375 103.057 46.75 103.457 46.55L130.307 26.075V20.225C130.307 19.925 130.37 19.7 130.495 19.55C130.62 19.4 130.782 19.325 130.982 19.325C132.982 19.375 134.657 18.7375 136.007 17.4125C137.357 16.0875 138.032 14.45 138.032 12.5C138.032 10.55 137.357 8.9 136.007 7.55C134.657 6.2 133.007 5.525 131.057 5.525C129.157 5.525 127.545 6.2 126.22 7.55C124.895 8.9 124.232 10.55 124.232 12.5H122.582C122.582 10.1 123.407 8.0625 125.057 6.3875C126.707 4.7125 128.707 3.875 131.057 3.875C133.457 3.875 135.495 4.7 137.17 6.35C138.845 8 139.682 10 139.682 12.35C139.682 14.55 138.932 16.475 137.432 18.125C135.932 19.775 134.107 20.75 131.957 21.05V26.075L158.807 46.55C159.107 46.75 159.195 47.0375 159.07 47.4125C158.945 47.7875 158.682 47.975 158.282 47.975H103.832ZM106.382 46.325H155.882L131.057 27.5L106.382 46.325Z" fill="#5B4C38"/>
</svg>
