<svg width="264" height="286" viewBox="0 0 264 286" fill="none" xmlns="http://www.w3.org/2000/svg">
<path d="M99.5 24H2V284H262V24H164.5" stroke="#5B4C38" stroke-width="3" stroke-linecap="round"/>
<path d="M132 30C132.933 30 133.744 29.6778 134.433 29.0333C135.122 28.3889 135.467 27.6 135.467 26.6667C135.467 25.7333 135.122 24.9222 134.433 24.2333C133.744 23.5444 132.933 23.2 132 23.2C131.067 23.2 130.278 23.5444 129.633 24.2333C128.989 24.9222 128.667 25.7333 128.667 26.6667C128.667 27.6 128.989 28.3889 129.633 29.0333C130.278 29.6778 131.067 30 132 30ZM132 55.2C137.689 50.3111 142.144 45.2889 145.367 40.1333C148.589 34.9778 150.2 30.6667 150.2 27.2C150.2 21.7333 148.456 17.2444 144.967 13.7333C141.478 10.2222 137.156 8.46667 132 8.46667C126.844 8.46667 122.544 10.2222 119.1 13.7333C115.656 17.2444 113.933 21.7333 113.933 27.2C113.933 30.6667 115.533 34.9778 118.733 40.1333C121.933 45.2889 126.356 50.3111 132 55.2ZM132 57.2667C125.422 51.3556 120.522 45.8556 117.3 40.7667C114.078 35.6778 112.467 31.1556 112.467 27.2C112.467 21.0667 114.433 16.1667 118.367 12.5C122.3 8.83333 126.844 7 132 7C137.156 7 141.722 8.83333 145.7 12.5C149.678 16.1667 151.667 21.0667 151.667 27.2C151.667 31.1556 150.044 35.6778 146.8 40.7667C143.556 45.8556 138.622 51.3556 132 57.2667V57.2667Z" fill="#5B4C38"/>
</svg>
