<svg width="264" height="286" viewBox="0 0 264 286" fill="none" xmlns="http://www.w3.org/2000/svg">
<path d="M99.5 24H2V284H262V24H164.5" stroke="#5B4C38" stroke-width="3" stroke-linecap="round"/>
<path d="M104.832 47.975C104.432 47.975 104.17 47.7875 104.045 47.4125C103.92 47.0375 104.057 46.75 104.457 46.55L131.307 26.075V20.225C131.307 19.925 131.37 19.7 131.495 19.55C131.62 19.4 131.782 19.325 131.982 19.325C133.982 19.375 135.657 18.7375 137.007 17.4125C138.357 16.0875 139.032 14.45 139.032 12.5C139.032 10.55 138.357 8.9 137.007 7.55C135.657 6.2 134.007 5.525 132.057 5.525C130.157 5.525 128.545 6.2 127.22 7.55C125.895 8.9 125.232 10.55 125.232 12.5H123.582C123.582 10.1 124.407 8.0625 126.057 6.3875C127.707 4.7125 129.707 3.875 132.057 3.875C134.457 3.875 136.495 4.7 138.17 6.35C139.845 8 140.682 10 140.682 12.35C140.682 14.55 139.932 16.475 138.432 18.125C136.932 19.775 135.107 20.75 132.957 21.05V26.075L159.807 46.55C160.107 46.75 160.195 47.0375 160.07 47.4125C159.945 47.7875 159.682 47.975 159.282 47.975H104.832ZM107.382 46.325H156.882L132.057 27.5L107.382 46.325Z" fill="#5B4C38"/>
</svg>
