<svg width="40" height="32" viewBox="0 0 40 32" fill="none" xmlns="http://www.w3.org/2000/svg">
<path d="M0 31.5V16.05L8.25 12.4V5.84998L20 0L31.75 5.84998V12.4L40 16.05V31.5H22.5V23.5C22.5 22.8 22.2583 22.2083 21.775 21.725C21.2917 21.2416 20.7 21 20 21C19.3 21 18.7083 21.2416 18.225 21.725C17.7417 22.2083 17.5 22.8 17.5 23.5V31.5H0ZM3 28.5H14.5V23.4C14.5 21.8666 15.0333 20.55 16.1 19.45C17.1667 18.35 18.4667 17.8 20 17.8C21.5333 17.8 22.8333 18.35 23.9 19.45C24.9667 20.55 25.5 21.8666 25.5 23.4V28.5H37V17.8L28.75 14.15V7.49998L20 2.94998L11.25 7.49998V14.15L3 17.8V28.5ZM20 14.25C20.7667 14.25 21.4167 13.9833 21.95 13.45C22.4833 12.9166 22.75 12.2666 22.75 11.5C22.75 10.7333 22.4833 10.0833 21.95 9.54997C21.4167 9.01664 20.7667 8.74998 20 8.74998C19.2333 8.74998 18.5833 9.01664 18.05 9.54997C17.5167 10.0833 17.25 10.7333 17.25 11.5C17.25 12.2666 17.5167 12.9166 18.05 13.45C18.5833 13.9833 19.2333 14.25 20 14.25Z" fill="black"/>
</svg>
