<svg width="68" height="36" viewBox="0 0 68 36" fill="none" xmlns="http://www.w3.org/2000/svg">
<path d="M62.2757 0.0795014C62.2698 0.141338 62.2639 0.203174 62.258 0.262066C62.4052 0.30918 62.5525 0.371017 62.7056 0.400463C64.3516 0.727316 64.9965 1.81094 64.4635 3.39219C63.9394 4.94106 63.4005 6.48404 62.8587 8.02408C61.3923 12.2084 59.9229 16.3927 58.4418 20.5711C58.374 20.7625 58.1944 20.9156 58.0649 21.0893C57.9589 20.9244 57.8116 20.7743 57.7498 20.5917C56.5248 17.1082 55.3117 13.6247 54.0955 10.1383C53.3211 7.91512 52.5467 5.69194 51.7722 3.46876C51.2186 1.87866 51.8753 0.736149 53.5213 0.400463C53.6627 0.371017 53.7922 0.303296 54.0337 0.212013C53.1503 -0.0795043 39.5815 0.00294498 39.2282 0.285628C39.3401 0.332742 39.4255 0.382799 39.5197 0.403411C41.5102 0.809768 42.1109 1.86393 41.4425 3.76616C40.4178 6.68721 39.3518 9.5965 38.386 12.5411C37.3996 15.5446 36.1452 18.3773 34.2164 20.9303C32.3996 23.3361 32.1611 26.0805 33.1623 28.9132C33.6864 30.3914 35.4856 31.154 36.9402 30.568C38.5332 29.9261 39.131 28.445 38.5538 26.6075C38.1475 25.3119 38.0945 24.0074 38.6275 22.7383C40.1999 18.9957 44.2929 18.3273 46.8194 21.3161C48.3506 23.127 48.8747 25.2854 48.3771 27.6382C47.3347 32.5527 42.8677 35.4473 38.0238 34.3607C32.8325 33.1976 29.9791 27.591 32.1346 22.7265C32.856 21.0982 33.7041 19.5257 34.4402 17.9062C35.2824 16.0482 35.5503 14.1283 34.8613 12.1465C33.8366 9.19898 32.8177 6.25141 31.793 3.3068C31.3248 1.96405 31.9991 0.744987 33.3831 0.450526C33.5922 0.406357 33.8012 0.34157 34.0074 0.288567C33.9985 0.238508 33.9897 0.191394 33.9809 0.141336H19.7731C19.7201 0.135447 19.6641 0.132505 19.5994 0.13545C18.0093 0.164896 16.4192 0.173728 14.8291 0.170784C10.0352 0.164894 5.24141 0.150172 0.447581 0.144283C0.297405 0.144283 0.150175 0.22673 0 0.2709C1.98762 0.850989 2.87394 1.95228 2.85039 4.26086C2.77677 11.5723 2.79444 18.8868 2.85039 26.2012C2.85922 27.3172 3.08301 28.5098 3.51881 29.5315C5.04118 33.1034 7.85034 34.9202 11.7137 35.0144C14.302 35.0763 16.8903 35.0085 19.4786 35.035C20.0705 35.0409 20.2442 34.8466 20.2383 34.2694C20.2148 31.8254 20.2354 29.3784 20.2324 26.9344C20.2324 26.7371 20.1942 26.5428 20.1736 26.3455C20.1147 26.3455 20.0558 26.3396 19.9939 26.3366C19.9586 26.528 19.9262 26.7224 19.8909 26.9138C19.7466 27.6823 19.7054 28.4921 19.4345 29.2165C17.6471 33.9897 12.7944 35.836 8.37743 34.0957C4.3757 32.5203 2.23202 28.0298 3.45403 23.9044C4.0724 21.8137 5.36509 20.1912 7.00819 18.8161C7.84151 18.1182 8.79851 17.6324 9.88213 17.5852C11.322 17.5205 12.7679 17.5352 14.2078 17.5882C15.5211 17.6382 16.6076 18.6335 16.8903 19.9203C16.9198 20.0587 16.9875 20.1912 17.0346 20.3267C17.0847 20.3149 17.1347 20.3031 17.1877 20.2913V14.5169C17.1377 14.5052 17.0876 14.4934 17.0405 14.4816C16.9934 14.5906 16.9256 14.6936 16.8991 14.8055C16.5693 16.2513 15.6477 17.1465 14.1872 17.2466C12.8974 17.332 11.5988 17.3055 10.3062 17.2731C9.59945 17.2554 9.38449 16.8373 9.66717 16.1777C9.7349 16.0217 9.82029 15.8715 9.92041 15.736C11.1159 14.1371 11.5399 12.3173 11.5193 10.3474C11.4899 7.32914 11.5105 4.31092 11.5105 1.28974C11.5105 0.535921 11.6165 0.450524 12.3703 0.559475C16.4575 1.15429 19.4757 4.36097 19.8379 8.48344C19.8614 8.76023 19.938 9.03408 19.988 9.30792C20.044 9.30792 20.0999 9.30792 20.1559 9.30498C20.1794 9.1548 20.2266 9.00463 20.2266 8.85151C20.2295 6.1513 20.2207 3.45109 20.2324 0.750873C20.2324 0.694926 20.2325 0.64487 20.2266 0.597757C21.372 1.04828 22.1582 1.89633 22.5881 3.13601C24.1782 7.72667 25.7507 12.3232 27.3525 16.9109C28.7306 20.8567 30.1676 24.7848 31.5192 28.7394C32.8766 32.7176 36.7606 35.3118 41.0391 34.7936C46.4542 34.1399 50.0555 28.7247 48.3682 23.342C47.0756 19.2224 43.1033 16.9934 38.8689 17.9415C38.3477 18.0593 37.75 18.1742 37.4732 17.6854C37.267 17.3232 37.2582 16.7284 37.3966 16.3161C38.6922 12.4557 40.035 8.61005 41.3718 4.76144C41.6104 4.07534 41.8871 3.40398 42.1433 2.72377C42.2052 2.72966 42.2699 2.73849 42.3318 2.74437C42.4172 2.90633 42.5232 3.05945 42.5821 3.2273C42.9796 4.34625 43.3683 5.46815 43.754 6.59005C44.605 9.05764 45.4472 11.5252 46.3011 13.9928C47.3936 17.1406 48.4949 20.2855 49.5873 23.4332C50.8211 26.9786 52.0461 30.5298 53.2858 34.0721C53.3623 34.2871 53.539 34.4667 53.6686 34.6611C53.8099 34.4697 54.0042 34.2959 54.0808 34.081C55.4206 30.2353 56.7398 26.3808 58.0766 22.5322C59.4253 18.6453 60.7857 14.7643 62.1461 10.8803C63.0707 8.23903 63.9629 5.58593 64.9494 2.96522C65.4706 1.5842 66.4511 0.615421 68 0.382796V0C66.086 0.0235569 64.1749 0.0500585 62.2609 0.0736154L62.2757 0.0795014ZM11.0423 11.9434C11.0129 13.2861 10.474 14.5287 9.56411 15.527C8.37743 16.8255 7.05235 17.9945 5.89806 19.3167C5.04118 20.2972 4.36097 21.4309 3.60421 22.4969C3.54826 22.5764 3.48348 22.65 3.31564 22.859C3.26558 22.4792 3.20374 22.2466 3.20374 22.011C3.2008 16.0393 3.18902 10.0706 3.21257 4.0989C3.21846 2.84744 2.95934 1.74321 1.98762 0.889271C1.94345 0.850991 1.91989 0.783262 1.89339 0.730259C1.88455 0.712591 1.89339 0.689035 1.90516 0.574195C2.10245 0.553582 2.32036 0.51236 2.53531 0.51236C5.18547 0.506471 7.83562 0.512363 10.4858 0.506474C10.8774 0.506474 11.1454 0.571249 11.1395 1.05122C11.1071 4.68193 11.1248 8.31559 11.0423 11.9463V11.9434ZM31.0039 25.5681C30.9391 25.574 30.8743 25.5799 30.8066 25.5828C30.5887 24.9821 30.3649 24.3844 30.1558 23.7837C28.18 18.1153 26.2041 12.4469 24.2312 6.7785C23.7719 5.45637 23.3744 4.11068 22.8325 2.82388C22.5616 2.17901 22.0404 1.6372 21.6164 1.063C21.4986 0.903993 21.3278 0.783265 21.0275 0.503527H32.2759C31.0451 1.55181 31.1393 2.66487 31.5663 3.83094C31.8725 4.66721 32.164 5.51232 32.4555 6.35448C33.1946 8.47754 33.9661 10.5888 34.6522 12.7296C35.1322 14.2254 34.929 15.736 34.3283 17.1524C33.6893 18.6512 32.8619 20.0705 32.2376 21.5722C31.7753 22.6794 31.5044 23.8632 31.1511 25.0145C31.0951 25.1971 31.0539 25.3855 31.0039 25.574V25.5681ZM57.6085 22.8443C56.357 26.4279 55.1232 30.0203 53.8806 33.6098C53.8541 33.6834 53.7981 33.7453 53.6479 33.9838C53.4065 33.3684 53.1945 32.8825 53.0237 32.3849C51.5985 28.2565 50.1821 24.1252 48.754 19.9998C47.4495 16.2337 46.1303 12.4704 44.8229 8.70428C44.1839 6.86095 43.5597 5.01174 42.9266 3.16546C42.5762 2.14368 41.9902 1.28385 41.1068 0.541808C44.7523 0.412245 48.3594 0.391628 52.0196 0.518246C50.5473 1.967 51.3541 3.42458 51.8458 4.84683C53.7481 10.3385 55.6562 15.8244 57.6143 21.2955C57.8205 21.8726 57.794 22.3143 57.6085 22.8473V22.8443Z" fill="#5B4C38"/>
</svg>
