<svg width="450" height="617" viewBox="0 0 450 617" fill="none" xmlns="http://www.w3.org/2000/svg">
<g clip-path="url(#clip0_1_3)">
<path d="M234.2 32.9C234.2 38.83 229.51 43.63 223.72 43.63C217.93 43.63 213.24 38.83 213.24 32.9C213.24 26.97 217.93 22.17 223.72 22.17C223.72 22.17 228.71 21.59 231.16 25.38C233.14 28.44 228.51 22.71 223.72 23.48C217.16 24.54 212.61 32.49 218.91 38.44C225.21 44.39 234.74 36.87 232.47 32.49C230.2 28.12 219.61 27.33 219.52 29.95C219.43 32.57 228.97 30.74 228.97 30.74" stroke="#5B4C38" stroke-width="1.3" stroke-linecap="round" stroke-linejoin="round"/>
<path d="M218.61 527.56C218.61 527.56 220 510.57 218.47 498.37C216.95 486.18 210.85 485.87 202.31 484.65C193.77 483.43 138.19 479.77 118.99 479.47C99.79 479.17 86.9 478.57 78.38 480.19C69.86 481.81 64.79 483.54 64.79 483.54" stroke="#5B4C38" stroke-width="1.3" stroke-linecap="round" stroke-linejoin="round"/>
<path d="M192.93 72.26C192.93 72.26 193.03 56.64 195.13 32.14C197.22 7.64999 213.67 0.649994 223.73 0.649994H225.24V7.36999C225.24 7.36999 222.52 7.70999 222.26 8.37999C222 9.04999 222.26 9.94999 222.26 9.94999C222.26 9.94999 224.84 10.23 225.05 9.94999C225.26 9.66999 222.36 9.35999 222.26 10.44C222.16 11.52 222.26 14.26 222.26 14.26C222.26 14.26 203.51 16.02 198.96 25.37C195.79 31.89 206.07 35.92 214.09 37.78" stroke="#5B4C38" stroke-width="1.3" stroke-linecap="round" stroke-linejoin="round"/>
<path d="M198.96 25.38C198.96 25.38 200.82 19.92 211.29 18.8C214.6 18.45 217.23 18.22 219.28 18.07C223.5 17.77 225.24 17.81 225.24 17.81L219.37 18.63C219.37 18.63 219.49 19.16 220.36 19.45C221.23 19.74 221.82 20.64 221.06 21.6C220.71 22.03 223.2 20.66 223.72 20.57C224.68 20.39 224.57 21.47 223.72 21.6C222.87 21.73 222.52 21.6 222.52 21.6" stroke="#5B4C38" stroke-width="1.3" stroke-linecap="round" stroke-linejoin="round"/>
<path d="M211.75 91.37C211.75 91.37 213.24 97.32 208.16 97.49C203.08 97.66 199.94 91.72 205.01 86.47C210.08 81.22 220.91 84.46 222.13 91.98C223.35 99.5 215.53 107.07 210 106.87C204.47 106.67 194.85 104.4 187.33 100.55C179.81 96.7 175.17 93.11 169.05 93.29C162.93 93.47 156.77 101.02 159.43 107.99C161.53 113.5 166.44 115.02 171.38 113.61C176.27 112.21 175.88 102.66 170.36 102.66C164.84 102.66 165.72 106.86 165.72 106.86" stroke="#5B4C38" stroke-width="1.3" stroke-linecap="round" stroke-linejoin="round"/>
<path d="M153.66 112.98C153.66 112.98 149.29 108.17 146.05 112.46C142.89 116.65 149.81 121.3 153.66 119.28C157.51 117.27 160.98 112.3 159.43 107.99C157.77 103.35 151.87 100.17 146.13 102.13C138.17 104.84 130.03 122.69 127.67 126.54C125.31 130.39 119.78 139.29 116.81 141.94C113.84 144.59 106.15 146.23 102.47 139.66C99.47 134.3 100.57 128.37 106.58 125.93C112.59 123.49 115.22 130.12 114.19 132.23C111.22 138.35 106.49 132.32 106.49 132.32" stroke="#5B4C38" stroke-width="1.3" stroke-linecap="round" stroke-linejoin="round"/>
<path d="M157.12 125.69C157.12 125.69 160.42 130.7 155.12 132.65C149.62 134.68 144.25 124.97 153.64 120.22C162.67 115.66 171.47 131.49 163.24 138.24C154.8 145.16 143.09 142.04 137.15 140.53C131.21 139.02 122.1 137.82 117.78 141.72C112.67 146.33 114.78 155.01 120.52 157.33C126.31 159.67 130.75 156.06 130.33 150.16C129.91 144.25 120.84 146.05 122.84 152.59" stroke="#5B4C38" stroke-width="1.3" stroke-linecap="round" stroke-linejoin="round"/>
<path d="M215.83 120.39C215.83 120.39 215.83 115.54 211.25 115.84C206.67 116.14 206.33 123.42 211.5 125.04C216.67 126.66 222.33 122.55 222.13 116.9C221.93 111.25 218.09 106.68 212.09 107.17C206.09 107.66 201.19 113.01 190.19 124.69C178.28 137.34 169.22 133.58 166.17 127.15C164.29 123.2 165.01 114.87 172.09 113.69C178.65 112.6 181.24 119.16 180.04 122.18C178.84 125.2 173.64 126.36 172.36 120.65" stroke="#5B4C38" stroke-width="1.3" stroke-linecap="round" stroke-linejoin="round"/>
<path d="M114.48 161.51C114.48 161.51 111.69 159.26 109.12 160.92C106.55 162.58 106.5 168.21 111.8 168.79C117.1 169.37 122.57 162.63 116.62 154.7C110.67 146.77 98.98 155.56 99.1 166C99.21 176.45 99.6 187.32 99.35 191.21C99 196.45 96.19 204.07 87.94 203.8C79.69 203.53 78.76 195.63 80.3 191.44C82.32 185.96 90.33 185.98 90.62 191.32C90.94 197.16 84.14 195.07 84.14 195.07" stroke="#5B4C38" stroke-width="1.3" stroke-linecap="round" stroke-linejoin="round"/>
<path d="M73.95 190.61C72.8 190.03 69.7 187.3 71.96 184.1C74.55 180.43 81.72 182.58 79.46 191.34C77.2 200.1 61.83 196.14 62.72 185.1C63.35 177.28 74.98 171.33 85.49 166.11C95.61 161.08 100.65 157.87 103.64 154.36C106.63 150.85 106 143.53 103.64 141.34C101.28 139.15 96.87 136.58 91.84 139.67C86.81 142.76 87.15 152.64 93.83 151.27C99.43 150.12 96.56 143.4 94.41 143.14" stroke="#5B4C38" stroke-width="1.3" stroke-linecap="round" stroke-linejoin="round"/>
<path d="M14.95 564.89C14.95 564.89 22.42 567.37 25.02 569.4C27.62 571.43 27.17 575.61 43.65 580.13C60.14 584.65 90.51 588.15 112.53 590.41C134.55 592.67 151.71 593.57 158.04 593.57C164.37 593.57 166.51 592.55 165.61 597.97C164.71 603.39 164.59 605.31 164.48 608.47C164.37 611.63 165.04 614.99 165.04 614.99" stroke="#5B4C38" stroke-width="1.3" stroke-linecap="round" stroke-linejoin="round"/>
<path d="M41.41 534.45C41.41 534.45 54.38 533.38 55.4 535.18C56.42 536.98 44.56 539.02 49.08 545.34C53.6 551.66 83.07 554.94 103.96 555.95C124.85 556.96 77.65 562.05 71.21 570.18C64.77 578.31 89.28 584.07 105.31 583.96C121.35 583.85 135.01 582.83 134.33 585.88C133.65 588.93 139.07 591.53 146.41 591.75C153.75 591.97 167.3 589.72 168.32 586.33C169.34 582.94 173.63 560.81 170.35 558.1C167.07 555.39 162.9 559 157.59 563.75C152.28 568.49 158.83 574.16 160.75 571.27C162.67 568.38 163.8 559.23 151.94 566.23C140.08 573.23 135.9 582.04 135.9 582.04" stroke="#5B4C38" stroke-width="1.3" stroke-linecap="round" stroke-linejoin="round"/>
<path d="M239.18 552.11C239.18 552.11 163.64 552.24 144.38 550.42C127.82 548.86 80.58 544.32 77.53 542.18C74.48 540.03 83.85 540.03 101.7 539.58C119.54 539.13 159.89 540.03 179.05 541.05C180.97 541.15 181.38 542.39 180.29 542.41C178.59 542.43 147.88 540.38 142.69 540.83C137.5 541.28 164.76 542.41 171.57 542.64C178.38 542.87 180.41 542.75 180.63 544.33C180.86 545.91 181.01 551.73 181.01 551.73" stroke="#5B4C38" stroke-width="1.3" stroke-linecap="round" stroke-linejoin="round"/>
<path d="M220.82 106.96C192.77 105.13 146.13 116.71 117.78 141.1C89.43 165.49 72.97 195.67 65.96 240.17C58.95 284.67 63.83 406.92 62.3 428.26C60.78 449.6 57.73 531.66 57.73 531.66H64.13C64.13 531.66 66.26 481 64.13 477.65C62 474.3 60.17 477.95 60.47 482.83C60.77 487.71 65.96 486.49 79.67 488.62C93.39 490.75 148.87 490.75 166.24 491.36C183.62 491.97 201.4 491.06 206.58 504.77C211.76 518.48 210.07 548.5 210.07 548.5" stroke="#5B4C38" stroke-width="1.3" stroke-linecap="round" stroke-linejoin="round"/>
<path d="M202.53 70.68C206.19 74.34 206.49 77.08 203.44 79.52C200.39 81.96 194.29 81.04 193.08 74.34C191.87 67.64 197.97 61.66 203.44 61.23C208.91 60.8 211.97 61.64 216.85 67.63C225.22 79.55 225.13 97.97 224.18 106.77" stroke="#5B4C38" stroke-width="1.3" stroke-linecap="round" stroke-linejoin="round"/>
<path d="M231.9 528.22C231.9 528.22 230.47 510.57 231.99 498.38C233.51 486.19 239.61 485.88 248.15 484.66C256.69 483.44 312.27 479.78 331.47 479.48C350.67 479.18 363.56 478.58 372.08 480.2C380.6 481.82 385.67 483.55 385.67 483.55" stroke="#5B4C38" stroke-width="1.3" stroke-linecap="round" stroke-linejoin="round"/>
<path d="M257.55 72.26C257.55 72.26 257.45 56.64 255.35 32.14C253.25 7.64999 236.8 0.649994 226.75 0.649994H225.24V7.36999C225.24 7.36999 227.96 7.70999 228.22 8.37999C228.48 9.04999 228.22 9.94999 228.22 9.94999C228.22 9.94999 225.64 10.23 225.43 9.94999C225.22 9.66999 228.12 9.35999 228.22 10.44C228.32 11.52 228.22 14.26 228.22 14.26C228.22 14.26 246.97 16.02 251.52 25.37C254.69 31.89 244.41 35.92 236.39 37.78" stroke="#5B4C38" stroke-width="1.3" stroke-linecap="round" stroke-linejoin="round"/>
<path d="M251.52 25.38C251.52 25.38 249.66 19.92 239.19 18.8C235.88 18.45 233.25 18.22 231.2 18.07C226.98 17.77 225.24 17.81 225.24 17.81L231.11 18.63C231.11 18.63 230.99 19.16 230.12 19.45C229.25 19.74 228.66 20.64 229.42 21.6C229.77 22.03 227.28 20.66 226.76 20.57C225.8 20.39 225.91 21.47 226.76 21.6C227.61 21.73 227.96 21.6 227.96 21.6" stroke="#5B4C38" stroke-width="1.3" stroke-linecap="round" stroke-linejoin="round"/>
<path d="M236.73 91.37C236.73 91.37 235.24 97.32 240.32 97.49C245.4 97.66 248.54 91.72 243.47 86.47C238.4 81.22 228.86 84.46 227.64 91.98C226.42 99.5 234.95 107.07 240.47 106.87C245.99 106.67 255.62 104.4 263.14 100.55C270.66 96.7 275.3 93.11 281.42 93.29C287.54 93.46 293.7 101.02 291.04 107.99C288.94 113.5 284.03 115.02 279.09 113.61C274.2 112.21 274.59 102.66 280.11 102.66C285.63 102.66 284.75 106.86 284.75 106.86" stroke="#5B4C38" stroke-width="1.3" stroke-linecap="round" stroke-linejoin="round"/>
<path d="M296.82 112.98C296.82 112.98 301.19 108.17 304.43 112.46C307.67 116.75 300.67 121.3 296.82 119.28C292.97 117.27 289.5 112.3 291.05 107.99C292.71 103.35 298.61 100.17 304.35 102.13C312.31 104.84 320.45 122.69 322.81 126.54C325.17 130.39 330.7 139.29 333.67 141.94C336.64 144.59 344.33 146.23 348.01 139.66C351.01 134.3 349.91 128.37 343.9 125.93C337.87 123.47 335.26 130.12 336.29 132.23C339.26 138.35 343.99 132.32 343.99 132.32" stroke="#5B4C38" stroke-width="1.3" stroke-linecap="round" stroke-linejoin="round"/>
<path d="M293.35 125.69C293.35 125.69 290.05 130.7 295.35 132.65C300.85 134.68 306.22 124.97 296.83 120.22C287.44 115.47 279 131.49 287.23 138.24C295.67 145.16 307.38 142.04 313.32 140.53C319.46 138.97 328.37 137.82 332.69 141.72C337.8 146.33 335.69 155.01 329.95 157.33C324.21 159.65 319.72 156.06 320.14 150.16C320.56 144.26 329.63 146.05 327.63 152.59" stroke="#5B4C38" stroke-width="1.3" stroke-linecap="round" stroke-linejoin="round"/>
<path d="M234.64 120.39C234.64 120.39 234.64 115.54 239.22 115.84C243.8 116.14 244.14 123.42 238.97 125.04C233.8 126.66 228.14 122.55 228.34 116.9C228.54 111.25 232.38 106.68 238.38 107.17C244.38 107.66 249.28 113.01 260.28 124.69C272.19 137.34 281.25 133.58 284.3 127.15C286.18 123.2 285.46 114.87 278.38 113.69C271.82 112.6 269.23 119.16 270.43 122.18C271.63 125.2 276.83 126.36 278.11 120.65" stroke="#5B4C38" stroke-width="1.3" stroke-linecap="round" stroke-linejoin="round"/>
<path d="M336 161.51C336 161.51 338.79 159.26 341.36 160.92C343.93 162.58 343.98 168.21 338.68 168.79C333.38 169.38 327.91 162.63 333.86 154.7C339.81 146.77 351.5 155.56 351.38 166C351.26 176.44 350.88 187.32 351.13 191.21C351.48 196.45 354.29 204.07 362.54 203.8C370.79 203.53 371.72 195.63 370.18 191.44C368.16 185.96 360.15 185.98 359.86 191.32C359.54 197.16 366.34 195.07 366.34 195.07" stroke="#5B4C38" stroke-width="1.3" stroke-linecap="round" stroke-linejoin="round"/>
<path d="M376.53 190.61C377.68 190.03 380.78 187.3 378.52 184.1C375.93 180.43 368.76 182.58 371.02 191.34C373.28 200.1 388.65 196.14 387.76 185.1C387.13 177.28 375.5 171.33 364.99 166.11C354.87 161.08 349.83 157.87 346.84 154.36C343.85 150.84 344.48 143.53 346.84 141.34C349.2 139.15 353.61 136.58 358.64 139.67C363.68 142.77 363.33 152.64 356.65 151.27C351.05 150.12 353.92 143.4 356.07 143.14" stroke="#5B4C38" stroke-width="1.3" stroke-linecap="round" stroke-linejoin="round"/>
<path d="M240.63 528.85C240.63 528.85 292.54 526.83 329.81 527.84C367.08 528.86 402.87 532.47 411.57 535.07C420.27 537.67 420.94 560.59 427.83 563.53C434.72 566.47 439.01 562.63 440.48 568.61C441.95 574.59 443.3 586.23 443.08 590.52C442.85 594.81 449.63 595.49 448.84 589.39C448.05 583.29 441.73 584.87 431.11 588.94C420.49 593.01 384.81 610.62 326.2 614.24C287.09 616.65 163.4 616.65 124.29 614.24C65.68 610.63 30 593.01 19.38 588.94C8.76999 584.87 2.43999 583.29 1.64999 589.39C0.859985 595.49 7.63999 594.81 7.40999 590.52C7.17999 586.23 8.53998 574.6 10.01 568.61C11.48 562.62 15.77 566.46 22.66 563.53C29.55 560.59 30.23 537.67 38.92 535.07C47.61 532.47 83.41 528.86 120.68 527.84C157.95 526.82 240.64 528.85 240.64 528.85H240.63Z" stroke="#5B4C38" stroke-width="1.3" stroke-linecap="round" stroke-linejoin="round"/>
<path d="M435.52 564.89C435.52 564.89 428.05 567.37 425.45 569.4C422.85 571.43 423.3 575.61 406.82 580.13C390.34 584.65 359.96 588.15 337.94 590.41C315.92 592.67 298.76 593.57 292.43 593.57C286.1 593.57 283.96 592.55 284.86 597.97C285.76 603.39 285.88 605.31 285.99 608.47C286.1 611.63 285.43 614.99 285.43 614.99" stroke="#5B4C38" stroke-width="1.3" stroke-linecap="round" stroke-linejoin="round"/>
<path d="M409.07 534.45C409.07 534.45 396.1 533.38 395.08 535.18C394.06 536.99 405.92 539.02 401.4 545.34C396.88 551.66 367.41 554.94 346.52 555.95C325.63 556.97 372.83 562.05 379.27 570.18C385.71 578.31 361.2 584.07 345.17 583.96C329.13 583.85 315.47 582.83 316.15 585.88C316.83 588.93 311.41 591.53 304.07 591.75C296.73 591.98 283.18 589.72 282.16 586.33C281.14 582.94 276.85 560.81 280.13 558.1C283.41 555.39 287.58 559 292.89 563.75C298.2 568.5 291.65 574.16 289.73 571.27C287.81 568.38 286.68 559.23 298.54 566.23C310.4 573.23 314.58 582.04 314.58 582.04" stroke="#5B4C38" stroke-width="1.3" stroke-linecap="round" stroke-linejoin="round"/>
<path d="M229.66 106.96C257.71 105.13 304.35 116.71 332.7 141.1C361.05 165.49 377.51 195.67 384.52 240.17C391.53 284.68 386.65 406.92 388.18 428.26C389.7 449.6 392.75 531.66 392.75 531.66H386.35C386.35 531.66 384.22 481 386.35 477.65C388.48 474.3 390.31 477.95 390.01 482.83C389.71 487.71 384.52 486.49 370.81 488.62C357.09 490.75 301.61 490.75 284.24 491.36C266.86 491.97 249.08 491.06 243.9 504.77C238.72 518.49 239.2 552.11 239.2 552.11C239.2 552.11 289.51 551.55 306.11 550.42C322.71 549.29 369.91 544.32 372.96 542.18C376.01 540.04 366.64 540.03 348.79 539.58C330.94 539.13 290.6 540.03 271.44 541.05C269.52 541.15 269.11 542.39 270.2 542.41C271.9 542.43 302.61 540.38 307.8 540.83C312.99 541.28 285.73 542.41 278.92 542.64C272.11 542.87 270.08 542.75 269.86 544.33C269.64 545.91 269.53 551.36 269.53 551.36" stroke="#5B4C38" stroke-width="1.3" stroke-linecap="round" stroke-linejoin="round"/>
<path d="M247.95 70.68C244.29 74.34 243.99 77.08 247.04 79.52C250.09 81.96 256.19 81.04 257.4 74.34C258.62 67.63 252.51 61.66 247.04 61.23C241.57 60.8 238.51 61.64 233.63 67.63C225.26 79.55 224.92 97.01 225.88 105.81C226.02 107.06 226.88 106.96 227.18 106.91" stroke="#5B4C38" stroke-width="1.3" stroke-linecap="round" stroke-linejoin="round"/>
<path d="M219.39 106.91L229.99 106.94" stroke="#5B4C38" stroke-width="1.3" stroke-linecap="round" stroke-linejoin="round"/>
<path d="M321.22 256.28C321.2 256.49 321.18 256.7 321.16 256.9C321.66 257.06 322.16 257.27 322.68 257.37C328.27 258.48 330.46 262.16 328.65 267.53C326.87 272.79 325.04 278.03 323.2 283.26C318.22 297.47 313.23 311.68 308.2 325.87C307.97 326.52 307.36 327.04 306.92 327.63C306.56 327.07 306.06 326.56 305.85 325.94C301.69 314.11 297.57 302.28 293.44 290.44C290.81 282.89 288.18 275.34 285.55 267.79C283.67 262.39 285.9 258.51 291.49 257.37C291.97 257.27 292.41 257.04 293.23 256.73C290.23 255.74 244.15 256.02 242.95 256.98C243.33 257.14 243.62 257.31 243.94 257.38C250.7 258.76 252.74 262.34 250.47 268.8C246.99 278.72 243.37 288.6 240.09 298.6C236.74 308.8 232.48 318.42 225.93 327.09C219.76 335.26 218.95 344.58 222.35 354.2C224.13 359.22 230.24 361.81 235.18 359.82C240.59 357.64 242.62 352.61 240.66 346.37C239.28 341.97 239.1 337.54 240.91 333.23C246.25 320.52 260.15 318.25 268.73 328.4C273.93 334.55 275.71 341.88 274.02 349.87C270.48 366.56 255.31 376.39 238.86 372.7C221.23 368.75 211.54 349.71 218.86 333.19C221.31 327.66 224.19 322.32 226.69 316.82C229.55 310.51 230.46 303.99 228.12 297.26C224.64 287.25 221.18 277.24 217.7 267.24C216.11 262.68 218.4 258.54 223.1 257.54C223.81 257.39 224.52 257.17 225.22 256.99C225.19 256.82 225.16 256.66 225.13 256.49H176.88C176.7 256.47 176.51 256.46 176.29 256.47C170.89 256.57 165.49 256.6 160.09 256.59C143.81 256.57 127.53 256.52 111.25 256.5C110.74 256.5 110.24 256.78 109.73 256.93C116.48 258.9 119.49 262.64 119.41 270.48C119.16 295.31 119.22 320.15 119.41 344.99C119.44 348.78 120.2 352.83 121.68 356.3C126.85 368.43 136.39 374.6 149.51 374.92C158.3 375.13 167.09 374.9 175.88 374.99C177.89 375.01 178.48 374.35 178.46 372.39C178.38 364.09 178.45 355.78 178.44 347.48C178.44 346.81 178.31 346.15 178.24 345.48C178.04 345.48 177.84 345.46 177.63 345.45C177.51 346.1 177.4 346.76 177.28 347.41C176.79 350.02 176.65 352.77 175.73 355.23C169.66 371.44 153.18 377.71 138.18 371.8C124.59 366.45 117.31 351.2 121.46 337.19C123.56 330.09 127.95 324.58 133.53 319.91C136.36 317.54 139.61 315.89 143.29 315.73C148.18 315.51 153.09 315.56 157.98 315.74C162.44 315.91 166.13 319.29 167.09 323.66C167.19 324.13 167.42 324.58 167.58 325.04C167.75 325 167.92 324.96 168.1 324.92V305.31C167.93 305.27 167.76 305.23 167.6 305.19C167.44 305.56 167.21 305.91 167.12 306.29C166 311.2 162.87 314.24 157.91 314.58C153.53 314.87 149.12 314.78 144.73 314.67C142.33 314.61 141.6 313.19 142.56 310.95C142.79 310.42 143.08 309.91 143.42 309.45C147.48 304.02 148.92 297.84 148.85 291.15C148.75 280.9 148.82 270.65 148.82 260.39C148.82 257.83 149.18 257.54 151.74 257.91C165.62 259.93 175.87 270.82 177.1 284.82C177.18 285.76 177.44 286.69 177.61 287.62C177.8 287.62 177.99 287.62 178.18 287.61C178.26 287.1 178.42 286.59 178.42 286.07C178.43 276.9 178.4 267.73 178.44 258.56C178.44 258.37 178.44 258.2 178.42 258.04C182.31 259.57 184.98 262.45 186.44 266.66C191.84 282.25 197.18 297.86 202.62 313.44C207.3 326.84 212.18 340.18 216.77 353.61C221.38 367.12 234.57 375.93 249.1 374.17C267.49 371.95 279.72 353.56 273.99 335.28C269.6 321.29 256.11 313.72 241.73 316.94C239.96 317.34 237.93 317.73 236.99 316.07C236.29 314.84 236.26 312.82 236.73 311.42C241.13 298.31 245.69 285.25 250.23 272.18C251.04 269.85 251.98 267.57 252.85 265.26C253.06 265.28 253.28 265.31 253.49 265.33C253.78 265.88 254.14 266.4 254.34 266.97C255.69 270.77 257.01 274.58 258.32 278.39C261.21 286.77 264.07 295.15 266.97 303.53C270.68 314.22 274.42 324.9 278.13 335.59C282.32 347.63 286.48 359.69 290.69 371.72C290.95 372.45 291.55 373.06 291.99 373.72C292.47 373.07 293.13 372.48 293.39 371.75C297.94 358.69 302.42 345.6 306.96 332.53C311.54 319.33 316.16 306.15 320.78 292.96C323.92 283.99 326.95 274.98 330.3 266.08C332.07 261.39 335.4 258.1 340.66 257.31V256.01C334.16 256.09 327.67 256.18 321.17 256.26L321.22 256.28ZM147.23 296.57C147.13 301.13 145.3 305.35 142.21 308.74C138.18 313.15 133.68 317.12 129.76 321.61C126.85 324.94 124.54 328.79 121.97 332.41C121.78 332.68 121.56 332.93 120.99 333.64C120.82 332.35 120.61 331.56 120.61 330.76C120.6 310.48 120.56 290.21 120.64 269.93C120.66 265.68 119.78 261.93 116.48 259.03C116.33 258.9 116.25 258.67 116.16 258.49C116.13 258.43 116.16 258.35 116.2 257.96C116.87 257.89 117.61 257.75 118.34 257.75C127.34 257.73 136.34 257.75 145.34 257.73C146.67 257.73 147.58 257.95 147.56 259.58C147.45 271.91 147.51 284.25 147.23 296.58V296.57ZM215.02 342.84C214.8 342.86 214.58 342.88 214.35 342.89C213.61 340.85 212.85 338.82 212.14 336.78C205.43 317.53 198.72 298.28 192.02 279.03C190.46 274.54 189.11 269.97 187.27 265.6C186.35 263.41 184.58 261.57 183.14 259.62C182.74 259.08 182.16 258.67 181.14 257.72H219.34C215.16 261.28 215.48 265.06 216.93 269.02C217.97 271.86 218.96 274.73 219.95 277.59C222.46 284.8 225.08 291.97 227.41 299.24C229.04 304.32 228.35 309.45 226.31 314.26C224.14 319.35 221.33 324.17 219.21 329.27C217.64 333.03 216.72 337.05 215.52 340.96C215.33 341.58 215.19 342.22 215.02 342.86V342.84ZM305.37 333.59C301.12 345.76 296.93 357.96 292.71 370.15C292.62 370.4 292.43 370.61 291.92 371.42C291.1 369.33 290.38 367.68 289.8 365.99C284.96 351.97 280.15 337.94 275.3 323.93C270.87 311.14 266.39 298.36 261.95 285.57C259.78 279.31 257.66 273.03 255.51 266.76C254.32 263.29 252.33 260.37 249.33 257.85C261.71 257.41 273.96 257.34 286.39 257.77C281.39 262.69 284.13 267.64 285.8 272.47C292.26 291.12 298.74 309.75 305.39 328.33C306.09 330.29 306 331.79 305.37 333.6V333.59Z" fill="#5B4C38"/>
<path d="M118.97 391.24V390.47H121.68V391.53H121.49L118.98 391.24H118.97ZM121.68 402.36V403.42H118.97V402.65L121.48 402.36H121.67H121.68ZM120.81 396.46C120.81 394.47 120.81 392.46 120.75 390.47H122.61C122.55 392.42 122.55 394.43 122.55 396.46V397.19C122.55 399.41 122.55 401.42 122.61 403.42H120.75C120.81 401.47 120.81 399.46 120.81 397.43V396.46ZM127.04 390.47L127.91 391.44H121.68V390.47H128.58L128.72 393.91H127.64L127.04 390.47V390.47ZM126.05 397.26H121.68V396.37H126.05V397.26ZM129.1 399.99L128.96 403.43H121.67V402.46H128.28L127.41 403.43L128.01 399.99H129.09H129.1ZM125.43 396.57L125.72 394.52H126.59V399.1H125.72L125.43 396.95V396.56V396.57Z" fill="#5B4C38"/>
<path d="M140.57 389.11L140.84 389.27L140.76 392.02V399.37C140.76 400.72 140.78 402.08 140.82 403.43H139.16C139.2 402.08 139.22 400.72 139.22 399.37V390.86L137.62 390.67V389.99L140.58 389.12L140.57 389.11ZM142.37 402.74V403.42H137.61V402.74L139.79 402.35H140.18L142.36 402.74H142.37Z" fill="#5B4C38"/>
<path d="M159.07 397.7C159.07 398.14 159.01 398.53 158.93 398.78H151.8V397.97H156.4C157.33 397.97 157.54 397.53 157.54 396.98C157.54 395.88 156.61 394.87 155.39 394.87C154.17 394.87 152.72 395.91 152.72 398.68C152.72 401.14 153.96 402.45 155.89 402.45C157.13 402.45 157.9 401.89 158.6 401.08L159.04 401.43C158.34 402.8 157.11 403.67 155.35 403.67C152.76 403.67 151.08 401.87 151.08 398.93C151.08 395.99 153.09 394 155.49 394C157.48 394 159.07 395.35 159.07 397.69V397.7Z" fill="#5B4C38"/>
<path d="M169.61 403.42C169.65 402.55 169.67 400.56 169.67 399.36V398.45C169.67 397.39 169.65 396.79 169.61 396.01L168.06 395.84V395.16L170.69 394L170.98 394.19L171.21 396.43V399.35C171.21 400.55 171.23 402.54 171.27 403.41H169.61V403.42ZM172.63 402.74V403.42H168.18V402.74L170.31 402.35H170.7L172.63 402.74ZM177.1 397.58V399.36C177.1 400.6 177.12 402.55 177.16 403.42H175.5C175.54 402.55 175.56 400.6 175.56 399.36V397.74C175.56 395.94 175.1 395.36 173.94 395.36C172.97 395.36 172.18 395.75 171.08 396.69H170.67V395.82H171.66L170.83 396.17C171.74 394.95 173.29 394 174.66 394C176.32 394 177.12 395.02 177.12 397.58H177.1ZM176.58 402.36L178.51 402.75V403.43H174.06V402.75L176.19 402.36H176.58Z" fill="#5B4C38"/>
<path d="M190.49 398.35C191.3 398.06 192.52 397.71 193.49 397.54V398.24C192.62 398.41 191.48 398.78 190.9 399.01C189.16 399.69 188.97 400.42 188.97 400.98C188.97 402 189.65 402.41 190.54 402.41C191.22 402.41 191.6 402.16 192.82 401.29L193.21 401L193.48 401.41L192.92 401.97C191.76 403.13 191.1 403.67 189.92 403.67C188.51 403.67 187.33 402.86 187.33 401.25C187.33 400.17 187.91 399.3 190.5 398.35H190.49ZM192.71 401.64V397.23C192.71 395.34 192.17 394.87 190.89 394.87C190.45 394.87 189.87 394.93 189.15 395.22L189.92 394.62L189.42 396.28C189.25 396.84 188.96 397.15 188.43 397.15C187.9 397.15 187.6 396.86 187.56 396.38C187.93 394.91 189.36 394 191.29 394C193.22 394 194.25 394.91 194.25 397.34V401.44C194.25 402.31 194.52 402.62 194.97 402.62C195.3 402.62 195.51 402.45 195.72 402.2L196.11 402.62C195.65 403.36 195.12 403.61 194.47 403.61C193.41 403.61 192.71 402.84 192.71 401.64Z" fill="#5B4C38"/>
<path d="M217.61 399.63C217.61 401.04 218.65 402.45 220.55 402.45C221.92 402.45 223.26 401.85 223.95 400.87L224.53 401.35C223.72 402.59 222.35 403.67 220.08 403.67C217.66 403.67 215.98 402.1 215.98 400.13C215.98 398.16 217.18 396.84 219.44 395.86L219.83 396.42C218.05 397.23 217.61 398.57 217.61 399.63V399.63ZM218.83 396.01C217.86 394.91 217.5 393.92 217.5 392.9C217.5 391.22 218.83 390.17 220.63 390.17C222.52 390.17 223.55 391.19 223.55 392.64C223.55 394.09 222.53 395.08 220.21 396.26L219.9 395.72C221.29 394.83 222.32 393.92 222.32 392.68C222.32 391.54 221.59 390.84 220.62 390.84C219.65 390.84 218.84 391.61 218.84 392.66C218.84 393.36 218.99 393.95 219.71 394.86C220.46 395.79 221.04 396.41 222.24 397.72C223.77 399.38 224.93 400.62 226.96 402.78L225.99 402.34L228.48 402.65L228.4 403.46C227.84 403.6 227.45 403.65 226.95 403.65C225.94 403.65 225.35 403.42 224.73 402.76C223.45 401.35 222.51 400.27 221.5 399.14C220.38 397.81 219.74 397.03 218.83 395.99V396.01ZM226.22 395.72H227.11C226.63 397.96 225.78 399.66 224.62 401.29L224 400.9C225.06 399.39 225.8 397.79 226.22 395.72V395.72ZM226.43 396.18L224.59 395.89V395.12H228.5V395.89L226.82 396.18H226.43Z" fill="#5B4C38"/>
<path d="M250.83 391.53L248.32 391.24V390.47H253.54V391.24L251.22 391.53H250.83V391.53ZM257.46 390.47H258.08L261.58 401.32H261.1L264.1 390.47H265.07L261.55 403.56H260.78L257.07 392.52H257.69L254.21 403.56H253.46L249.69 390.47H251.49L254.41 401.32H253.87L257.49 390.47H257.46ZM257.63 391.53L255.16 391.24V390.47H260.38V391.24L258.02 391.53H257.63ZM264.03 391.53L262 391.24V390.47H266.41V391.24L264.42 391.53H264.03V391.53Z" fill="#5B4C38"/>
<path d="M281.47 397.7C281.47 398.14 281.41 398.53 281.33 398.78H274.2V397.97H278.8C279.73 397.97 279.94 397.53 279.94 396.98C279.94 395.88 279.01 394.87 277.79 394.87C276.57 394.87 275.12 395.91 275.12 398.68C275.12 401.14 276.36 402.45 278.29 402.45C279.53 402.45 280.3 401.89 281 401.08L281.44 401.43C280.74 402.8 279.51 403.67 277.75 403.67C275.16 403.67 273.48 401.87 273.48 398.93C273.48 395.99 275.49 394 277.89 394C279.88 394 281.47 395.35 281.47 397.69V397.7Z" fill="#5B4C38"/>
<path d="M290.17 402.74L292.26 402.35L291.62 403.41C291.66 402.54 291.68 400.55 291.68 399.35V390.84L290.08 390.65V389.97L292.98 389.1L293.25 389.26L293.17 392.01V395.72L293.23 395.97V401.89L293.04 403.61L290.18 403.42V402.74H290.17ZM298.17 398.91C298.17 396.42 297.15 395.06 295.68 395.06C294.98 395.06 294.04 395.37 292.63 396.78L292.46 396.43C293.58 394.73 294.84 393.99 296.15 393.99C298.2 393.99 299.82 395.75 299.82 398.73C299.82 401.71 298.12 403.66 295.86 403.66C294.68 403.66 293.48 403.14 292.46 401.13L292.63 400.82C293.64 402.1 294.68 402.6 295.59 402.6C296.98 402.6 298.18 401.4 298.18 398.91H298.17Z" fill="#5B4C38"/>
<path d="M316.93 397.7C316.93 398.14 316.87 398.53 316.79 398.78H309.66V397.97H314.26C315.19 397.97 315.4 397.53 315.4 396.98C315.4 395.88 314.47 394.87 313.25 394.87C312.03 394.87 310.58 395.91 310.58 398.68C310.58 401.14 311.82 402.45 313.75 402.45C314.99 402.45 315.76 401.89 316.46 401.08L316.9 401.43C316.2 402.8 314.97 403.67 313.21 403.67C310.62 403.67 308.94 401.87 308.94 398.93C308.94 395.99 310.95 394 313.35 394C315.34 394 316.93 395.35 316.93 397.69V397.7Z" fill="#5B4C38"/>
<path d="M327.52 399.36V398.45C327.52 397.39 327.5 396.79 327.46 396.01L325.91 395.84V395.16L328.54 394L328.83 394.19L329.06 396.61V399.36C329.06 400.56 329.08 402.55 329.12 403.42H327.46C327.5 402.55 327.52 400.56 327.52 399.36V399.36ZM326.07 402.74L328.2 402.35H328.59L330.72 402.74V403.42H326.08V402.74H326.07ZM328.29 396.75H329.39L328.91 396.89C329.53 395.09 330.71 394.01 331.85 394.01C332.41 394.01 332.99 394.28 333.22 394.67C333.22 395.58 332.87 396.08 332.1 396.08C331.66 396.08 331.29 395.91 330.94 395.62L330.42 395.18L331.37 394.99C330.17 395.61 329.48 396.57 329.03 398.06H328.3V396.77L328.29 396.75Z" fill="#5B4C38"/>
</g>
<defs>
<clipPath id="clip0_1_3">
<rect width="448.61" height="616.69" fill="white" transform="translate(0.929993)"/>
</clipPath>
</defs>
</svg>
